<?xml version="1.0" encoding="utf-8"?>
<!-- Generator: Adobe Illustrator 15.1.0, SVG Export Plug-In . SVG Version: 6.00 Build 0)  -->
<!DOCTYPE svg PUBLIC "-//W3C//DTD SVG 1.1//EN" "http://www.w3.org/Graphics/SVG/1.1/DTD/svg11.dtd">
<svg version="1.1" id="Layer_1" xmlns="http://www.w3.org/2000/svg" xmlns:xlink="http://www.w3.org/1999/xlink" x="0px" y="0px"
	 viewBox="0 0 850 450" enable-background="new 0 0 850 450" xml:space="preserve">
<defs>
	<style type="text/css"><![CDATA[
		:root {
			--blackish:#494e52;
			--grey:#9FA1A4;
			--accent: #FF3636;
			--serif: Georgia, Times, serif;
			--sans-serif: Helvetica, sans-serif;
		}
		
	]]></style>
 </defs>
<g>

<!-- context map -->
	<path fill="none" stroke="var(--accent)" stroke-width="0.5" stroke-miterlimit="10" d="M587.126,69.116l-1.836,4.595l2.452,4.288l-2.147,2.757l-1.225,3.063
		l-0.918,1.228v2.451l0.918,1.225l3.371,1.839 M587.742,104.959v0.61v1.531 M345.691,413.453v-1.229l-3.064-2.146v-3.061
		l-1.531-0.924l-0.92-1.838l-2.145-1.53l-1.531,0.614l-2.145-1.844l-1.838-1.836l-0.306-0.918l0.306-1.839l-1.226-2.451
		l-2.146-5.209l-1.839-1.525v-1.534l1.533-2.45l0.306-2.452l0.306-0.607l3.37-0.922l1.226-0.921l2.145-3.063l1.836-4.596l0.92-9.497
		l0.92-4.902l-0.306-7.352l9.805-1.531l-2.758-9.802l-0.919-7.049h0.612l5.21-1.836l3.37,1.529l3.674-0.613l-0.302-1.837
		l11.948-2.758l-4.902-7.047h7.659l1.227,0.92l0.919,0.92v0.611l0.305-0.611l1.836-0.92h1.533l1.533-1.529l0.92-1.228l0.919-0.611
		l3.062-0.308h3.371l5.514,1.531l1.532-0.312l0.919-0.917h2.757l2.145-0.307l0.613-2.146l2.757-1.528l-0.308-3.063l2.451-1.53
		l2.452-0.609l2.145-5.518l1.228-0.92l4.903-4.897l3.369-0.921l1.836-2.146l0.923-1.527l-0.308-2.761l-0.615-3.365l1.226-2.146
		l0.924-0.613l1.837,0.613l0.305,0.919l0.312,0.309l4.29-1.531l7.967,4.288l1.532-0.312l1.836,0.615l2.451-2.144l2.452-0.613
		l1.53-1.229l1.527-0.305l2.146,0.305l4.6,1.842l3.061-0.311l0.921,0.918l0.611,1.229l1.228-0.313l2.757-2.445l3.063-4.597
		l3.677-1.84l2.45-0.611l2.765-3.367l4.591-0.919l2.45-3.37l-0.308-2.759l0.611-0.61l2.758-0.61l3.064,0.61l0.61,0.61l0.611,0.92
		h0.305l2.451-1.226l1.53-1.84l2.761-2.146l1.531-0.61l2.453-0.308l0.917-0.918l0.612-1.531l4.898-1.837l0.31-0.612v-1.228
		l0.61-0.917l1.229-0.921l1.224-3.063l3.063-2.76l1.53-1.527l2.757-1.838l0.925-2.76l-0.614-3.063l1.533-2.755l2.451-0.921
		l2.757-1.838l1.839-3.68l0.309-2.451l2.144-1.839l-0.612-2.145l0.923-1.53l0.611-2.144l1.84-1.227l2.448-0.61l0.308-1.533
		l1.534-1.533l-1.534-3.061l0.612-0.922l1.225-0.918l0.31-0.922l-0.916-0.918l-0.615-1.529l-1.229-1.533l0.309-3.677l-0.921-2.758
		l0.309-2.758l-2.146-5.208v-1.225l-0.612-2.146l-2.146-4.288l-0.921-0.307l-2.143-3.063l0.305-4.289l-0.914-2.146l0.914-3.676
		l-0.914-2.453l-1.229-1.224l-0.612-1.229l-2.755-1.531l0.304-3.368l0.611-1.531l-0.305-1.228l-1.844-1.226l-0.608-0.611
		l-0.923-3.062l-1.839-0.613l-1.223-2.757l0.307-2.451l0.916-1.837l1.229-0.92l-0.311-2.45l-0.609-0.92l-3.064-2.756l-2.146-3.985
		l-2.145-0.61L511.134,131l-1.227-2.146l0.307-2.451l-0.921-0.92l-0.609-1.838l-0.611-3.676l0.611-0.919v-2.758l0.922-2.146
		l1.528-3.062l3.372-2.451l0.61-2.759l0.918-2.449l-0.918-2.759l-3.063-1.226l0.308-1.53l2.45-0.92l0.613-1.227h2.145l1.838-3.062
		L524,91.171l1.229-0.919l1.226-4.901l1.226-2.759l3.682-0.306l0.916-0.308l1.228-1.839l0.609-1.531l0.923-0.61l2.144,0.306
		l0.613,1.838l0.918,0.612l3.984,0.919l5.208,2.146l0.307-2.448l0.614-0.614l-1.838-2.146l-0.61-1.528v-0.92l4.901-3.063l3.979,0.61
		l1.844-0.308l1.837-2.757l0.305-4.597l1.836-2.45l2.452-1.531l2.759-0.307l-1.224-3.37v-0.92l2.755-2.448l0.922-0.309l2.453-3.37
		l3.368-0.306l0.922-0.612l3.98,3.675l1.839,0.922l2.45,2.448l2.146,7.966l-0.309,1.229l0.611,0.61l0.308,1.532l0.61,0.306"/>
	<path fill="none" stroke="var(--accent)" stroke-width="0.5" stroke-miterlimit="10" d="M369.896,38.176l-0.306,0.613l-0.308,1.527l-0.917,0.92l-0.309,1.841
		l0.309,0.919l1.835,2.449l2.145,0.918l1.842,1.84l1.224,0.306l1.837,1.837l2.76,1.229l0.613,2.451l-0.31,1.225l0.921,1.533v1.53
		l0.919,2.451l0.61,1.838l1.228,0.918l-0.307,2.45l0.612,0.919l1.224,0.306l0.309,1.228l1.227,0.306l1.224,3.063l2.144-0.309
		l2.451-0.919l3.983-2.145l3.981-1.229l1.227-2.757l0.612-4.597l3.677-0.919l1.226-1.532l0.916-0.918v-1.837l0.615-1.838
		l0.918-1.227l0.308-1.839l1.226-0.92l0.612-1.527l0.612-0.612l0.918-1.838l0.613-0.613l1.53-0.306l0.918-3.064l1.842-1.837
		l1.528-0.92l0.309-0.919 M431.174,38.176l6.437,3.979v3.982l-0.918,1.533l1.837,1.531l0.611,1.53v0.61l-2.759,2.758v1.228
		l-1.534,2.45l-0.303,1.227l0.303,0.613l0.613,0.61l0.921,1.838l1.839,0.61l1.53,1.227l-0.308,1.531l0.609,1.839l3.984,1.532
		l-1.229,3.37l2.762,2.452l2.143,2.45l0.611,1.838l1.534,2.145l-2.146,1.53l-2.452,0.614l-0.301,1.837l-0.922,0.92l-3.368,1.838
		l-2.45,1.839l-1.84,0.612l-3.063-0.31l-2.761,0.612l-1.53,0.918l-1.227,1.533l-1.837,0.61l-0.92,0.921l-0.924,1.528v1.228
		l-1.527,0.919l-1.227,3.981l-2.147,1.227v1.531l-1.225,3.368v1.842l-3.063,2.446l-1.839,2.76v0.306l0.613,1.226l-3.678,3.368
		l1.227,2.146l0.306,3.367l-1.53,1.533l-1.534,0.918l-0.609,0.612l-0.307,3.678l1.53,0.611v0.613l-2.145,3.367v3.681l-1.53,1.836
		h-0.615l-3.68-0.919l-3.061,0.612l-1.838-0.308l-3.065,1.226l-2.758-0.92h-1.53l-1.533,1.228v2.45l-0.611,2.758l-2.757,2.758
		l-0.612,0.919l-1.227,0.612l-4.902,0.612l-1.837-0.612l-1.224,0.307l-0.92,0.918l-2.761,0.611l-3.063-0.305l-1.529,3.677
		l0.917,1.531l-0.308,0.611l-3.062,2.452l-0.918,2.756l-1.84,2.146v1.839l1.226,3.062v1.837l-1.531,3.683l-0.305,1.837l-1.226,1.837
		l-1.839,0.307l-4.596,3.679l-0.306,0.61l0.918,0.919v0.922l-2.759,2.448l-0.307,0.309l-1.225-0.613l-1.532,1.533l1.839,3.369v2.146
		l1.531,3.369l1.839,2.758l-0.307,1.531l-0.918,0.612l-0.923,0.919h-1.529l-1.838,0.92h-1.534l-4.595,1.528l-2.144-0.919h-3.982
		l-3.064,1.227l-2.451-0.61l-1.226-1.837l-0.614-0.308l-0.612-1.228l-2.145-1.838l-1.225-1.838l-2.146,0.612l-2.143-0.612
		l-2.76,0.92h-1.836l-1.534,0.612l-3.677-1.226l-0.306-1.839l-1.532-0.612l-1.532-1.227l-5.21-1.53l-1.225,0.307l1.225,1.53
		l-4.902,1.532l-30.945,8.884l-4.289-1.224l0.306,0.919l-0.611,3.063l-1.226,1.53l-0.92,1.532l-3.063,3.677l-0.307,0.92l-4.29,2.146
		l-1.533,4.29l-1.225,0.307l-0.92,2.449l-1.226,0.917v1.532l-2.145,1.226l-0.307,0.922l-0.611,0.31l-3.983-1.843l-1.225-0.305
		l-4.29-2.451l-1.533-0.308l-3.063,0.308l-1.534-1.227h-0.92l-0.612,0.919l-0.919,0.308l-3.984-0.308l-1.531,0.918L217,228.112
		l-1.838-0.307l-0.92-1.227l-2.451-1.226l-1.227-0.309l-2.144,1.229l-1.225,1.227l-3.063,1.839l-2.451,0.918l-2.145,1.228
		l-3.371,0.917l-1.838,1.839h-2.146l-2.45-1.839l-2.759-0.917l-2.145-1.53l-2.144-3.37l-2.451-2.449l-1.533-0.92l-0.611-0.92
		l-1.532-0.611l-0.919-2.759l0.612-2.146l-0.305-0.919l-1.533-2.145l-2.451-1.226l-3.37-5.515l-0.308-1.532l-0.305-2.145v-3.371
		l0.92-2.756l-0.307-3.367l0.612-0.921l3.37-2.758l2.146-0.918l0.612-3.064l1.532,0.92h3.063l2.145-1.227l1.532-2.146l-2.45-1.527
		l-0.919-1.228l0.919-2.451l-2.757-5.207v-2.449l-1.532-2.146l-1.227-4.596l-4.903-9.497l-0.305-3.063l-2.146-2.45l-0.306-1.225
		l0.92-2.146l-0.92-3.678l0.92-1.531v-1.839l0.611-3.369l0.307-1.226l-0.613-2.453l2.451-5.208l-0.611-1.225l1.531-0.92l0.306-0.919
		l-2.145-1.839l-0.305-1.838l-4.289-5.819l-0.306-2.45h-0.608l-1.225,0.92l-0.612-0.306l-0.612-1.533l-0.306-4.288l-0.613-1.225
		l0.306-2.146l-0.306-3.063l-1.839-5.208l-1.228-1.529l-0.308-4.902l2.146-7.657l-3.677-4.29l-3.064-1.838l1.227-1.531v-0.307
		l0.306-1.529l1.226-0.613l1.838-2.144l0.92-2.146l0.612-0.921l1.532-0.61l1.531-0.917l-0.612-1.839v-0.921l0.919-1.224v-1.839
		l3.063-1.841l-0.305-1.839l-2.452-1.225l-0.612-0.918l-0.307-0.919l-2.145-2.146l-1.225-4.595l-1.839-4.288v-1.839"/>
	<path fill="none" stroke="var(--accent)" stroke-width="0.5" stroke-miterlimit="10" d="M207.204,302.245l0.612,0.921l-1.532,1.837v3.677l-1.534,4.904
		l0.308,1.838l-0.92,1.525l-0.613,3.683l-0.611,0.61l-0.921,1.527l-1.225,0.615l-0.92,1.836l-1.532,0.921l-1.225,1.225l-1.838,0.611
		l-0.308,3.063l0.308,0.921l1.225,0.61l1.225,2.146l3.065,2.45l-0.612,2.758l1.225,1.224v1.84l-0.612,2.146l-0.92,0.92l-3.369,2.45
		l-1.839,0.307l-1.839,3.063l0.308,2.759l-0.612,1.838l-2.758,2.758l-0.307,1.226l-2.145,2.146l-1.228-0.311l-2.144-1.53
		l-1.225-1.53l-2.758-0.612h-1.837l-0.919-0.919l-2.452-0.919l-2.452,1.529l-2.757,2.76l-1.227,2.144l-0.919,0.308l-3.064,1.533
		h-3.983l-1.532,1.532l-0.921,3.063l0.307,1.836l-1.225,1.529l-3.37-2.449l-1.531-0.612l-0.919-0.608h-0.92l-1.839,1.529
		l-2.452-0.309l-1.531-2.449l-4.291-2.759h-3.064l-1.837,0.309l-0.919,1.226l-1.838,1.532l-2.145,0.609l-1.227-0.305l-2.759,27.571
		l-3.982-0.921v0.308l0.612,0.921l5.515,3.981l-1.837,5.516l1.532,0.308l3.37,1.53l-1.533,4.902l-1.225,0.611 M99.661,152.444
		l1.226,0.613l0.919,1.532l2.757,1.53l1.227,1.226l2.144-1.226l1.531,0.308l1.533-1.225h0.613l3.37-1.532l0.612-0.612l0.307-1.226
		l0.919-0.921l0.611-1.836l2.146-1.227h5.516l1.225-0.613l3.677,2.146l1.838,0.61l3.37,3.063l0.919-0.613l1.839-0.305l2.757-1.534
		h0.613l0.306-2.146l-0.306-3.982l0.918-1.838V140.8l0.614-1.837l0.918-0.309l0.918,0.612l1.839,2.451h0.612l1.531-0.307l0.92-1.228
		l0.612-0.308l3.677,2.146l-0.305,1.839l0.612,0.611l2.145,0.613l0.612-0.92l-0.307-2.146l-0.306-1.531l-0.919-1.226l0.919-2.145
		l2.451-0.306l1.839,1.225l0.919-1.838l2.451-0.308l1.838-0.919l3.677,0.306"/>
	<path fill="none" stroke="var(--accent)" stroke-width="0.5" stroke-miterlimit="10" d="M312.906,314.807l-3.369,9.19h-1.227l-0.305,4.287l-1.837,5.208
		l1.837,0.92l0.613-0.307l8.579,3.982l5.822,1.225l-3.064,11.951l12.257,1.224l-0.918,6.127h1.225l-0.614,3.063h7.047l-0.92,9.497
		l-1.837,4.596l-2.145,3.063l-1.227,0.92l-3.371,0.921l-0.306,0.607l-0.306,2.452l-1.533,2.45v1.534l1.839,1.525l2.146,5.209
		l1.225,2.451l-0.305,1.838l0.305,0.92l1.837,1.838l2.145,1.841l1.531-0.615l2.145,1.532l0.921,1.838l1.53,0.92v3.063l3.064,2.145
		v1.229 M252.549,413.453l-0.307-0.309l2.758-0.611l1.532,0.921 M258.982,413.453l1.227-0.613l0.612-4.597l2.759-2.756l3.064-4.901
		l0.305-0.921l-0.92-1.227l-0.612-2.451l-0.919-1.227l0.305-1.531l-1.224-1.836l-1.532-4.291l-0.613-0.305l0.613-2.146l-3.065-3.98
		l-0.305-2.45l-0.92-1.532l-0.613-4.287L255,371.177l-0.612-0.309l-7.966,11.027l-13.789-6.127l0.612-0.918l2.453-1.53l4.902-5.516
		l1.532-0.92l0.92-2.449l8.272-10.721l0.92-1.534v-0.31l-0.308-0.607l1.533-3.984l0.92-1.226l1.533-1.229l1.532,1.532l5.515-12.562
		l4.29,2.45l4.289-4.596l3.983,1.227l0.306-0.309h0.919l1.226-2.451l16.238-23.278l9.191,3.979l9.497,3.983l0,0"/>
</g>

<!-- province labels -->
<g>
	<text transform="matrix(1 0 0 1 283.6987 149.6555)" fill="var(--accent)" font-family="var(--serif)" font-size="12">Chabuco</text>
	<text transform="matrix(1 0 0 1 443.582 339.3167)" fill="var(--accent)" font-family="var(--serif)" font-size="12">Cordillera</text>
	<text transform="matrix(1 0 0 1 269.019 358.4885)" fill="var(--accent)" font-family="var(--serif)" font-size="12">Maipo</text>
	<text transform="matrix(1 0 0 1 170.8198 389.9153)" fill="var(--accent)" font-family="var(--serif)" font-size="12">Talagante</text>
	<text transform="matrix(1 0 0 1 140.0044 292.2913)" fill="var(--accent)" font-family="var(--serif)" font-size="12">Melipilla</text>
</g>

<!-- scale bar -->
<g>
	<rect x="607.546" y="398.762" fill="none" width="11.813" height="10.057"/>
	<text transform="matrix(1 0 0 1 607.5439 405.9006)" font-family="var(--sans-serif)" font-size="10.2127">0</text>
	<rect x="652.684" y="398.762" fill="none" width="11.814" height="10.057"/>
	<text transform="matrix(1 0 0 1 652.6826 405.9006)" font-family="var(--sans-serif)" font-size="10.2127">10 Km</text>
	<g>
		<line fill="none" stroke="var(--accent)" stroke-miterlimit="10" x1="610.487" y1="413.5" x2="610.487" y2="407.705"/>
		<line fill="none" stroke="var(--accent)" stroke-miterlimit="10" x1="658.592" y1="413.5" x2="658.592" y2="407.705"/>
		<line fill="none" stroke="var(--accent)" stroke-miterlimit="10" x1="634.385" y1="413.5" x2="634.385" y2="409.444"/>
		<line fill="none" stroke="var(--accent)" stroke-miterlimit="10" x1="610.487" y1="413.5" x2="658.592" y2="413.5"/>
	</g>
</g>

<!-- comunas -->
<g>
	
		<polygon fill="#F7F8F8" stroke="var(--blackish)" stroke-width="0.5" stroke-linecap="round" stroke-linejoin="round" stroke-miterlimit="10" points="
		298.201,248.637 295.75,260.278 295.443,261.501 292.378,260.278 287.171,260.278 286.866,256.91 284.106,256.91 279.816,255.682 
		277.059,255.682 275.222,254.764 273.996,254.764 271.238,253.845 269.4,250.474 268.481,250.169 268.173,248.637 270.933,248.332 
		273.383,248.944 278.591,247.717 289.621,247.41 293.299,248.023 295.135,246.8 	"/>
	
		<polygon fill="#F7F8F8" stroke="var(--blackish)" stroke-width="0.5" stroke-linecap="round" stroke-linejoin="round" stroke-miterlimit="10" points="
		319.036,299.49 312.906,314.807 303.408,310.823 303.717,306.843 308.005,295.201 	"/>
	
		<polygon fill="#F7F8F8" stroke="var(--blackish)" stroke-width="0.5" stroke-linecap="round" stroke-linejoin="round" stroke-miterlimit="10" points="
		334.354,303.474 335.58,316.34 337.417,324.611 326.694,323.077 327.307,319.709 330.982,302.861 	"/>
	
		<polygon fill="#767677" stroke="var(--blackish)" stroke-width="0.5" stroke-linecap="round" stroke-linejoin="round" stroke-miterlimit="10" points="
		362.236,215.856 364.381,215.551 365.607,216.777 367.444,217.083 369.283,217.083 370.204,217.696 371.431,217.083 
		372.654,218.307 372.961,219.84 372.654,219.84 373.881,221.678 374.491,221.678 376.637,223.517 380.928,223.517 383.069,222.903 
		385.215,222.903 386.749,224.741 382.459,227.193 379.396,230.867 379.089,230.562 375.106,233.014 362.85,238.528 
		356.108,241.898 350.594,244.042 347.529,244.959 343.853,244.959 345.383,242.816 345.383,241.591 346.305,237.912 
		347.529,235.769 349.062,234.238 349.367,233.014 348.142,230.562 349.674,228.724 349.979,226.275 350.899,224.128 
		350.899,221.371 349.367,219.84 350.899,218.615 353.045,215.856 355.496,215.244 357.028,214.018 357.334,213.406 360.705,214.63 
			"/>
	
		<polygon fill="#767677" stroke="var(--blackish)" stroke-width="0.5" stroke-linecap="round" stroke-linejoin="round" stroke-miterlimit="10" points="
		378.17,257.213 384.604,256.294 387.973,257.827 391.345,258.439 393.796,259.972 394.716,261.501 396.859,263.341 
		397.472,264.566 397.472,266.403 399.923,268.857 401.146,270.695 401.455,271.919 382.153,271 381.233,274.371 376.944,273.146 
		375.411,273.449 372.347,272.836 367.444,272.836 362.85,271.308 363.463,267.938 362.236,259.972 358.255,257.827 357.028,256.6 
		370.509,255.989 377.556,254.764 	"/>
	
		<polygon fill="#767677" stroke="var(--blackish)" stroke-width="0.5" stroke-linecap="round" stroke-linejoin="round" stroke-miterlimit="10" points="
		321.18,202.377 323.325,201.765 324.549,203.603 326.694,205.441 327.307,206.666 327.921,206.973 329.147,208.812 
		331.596,209.423 334.662,208.198 338.644,208.198 340.787,209.118 345.383,207.585 346.918,207.585 348.757,206.666 
		350.287,206.666 351.208,205.749 351.819,206.666 353.659,207.28 354.885,210.648 357.334,213.406 357.028,214.018 
		355.496,215.244 353.045,215.856 350.899,218.615 349.367,219.84 350.899,221.371 350.899,224.128 349.979,226.275 
		349.674,228.724 348.142,230.562 349.367,233.014 349.062,234.238 347.529,235.769 346.305,237.912 345.383,241.591 
		345.383,242.816 342.016,239.141 341.096,238.528 339.87,238.222 339.255,236.995 337.113,235.769 331.596,230.867 
		324.244,227.497 312.601,222.596 309.537,222.291 308.005,215.244 309.23,212.794 309.845,212.489 310.454,209.423 313.521,207.28 
		312.906,203.296 314.44,202.684 316.277,202.684 319.036,201.765 	"/>
	
		<polygon fill="#767677" stroke="var(--blackish)" stroke-width="0.5" stroke-linecap="round" stroke-linejoin="round" stroke-miterlimit="10" points="
		473.764,81.676 474.988,82.594 475.909,82.9 477.132,82.288 478.36,82.288 481.118,84.433 482.648,84.74 484.18,87.804 
		484.485,91.174 486.633,93.318 488.775,94.237 490.614,93.929 494.6,93.929 495.211,94.237 495.822,95.156 496.436,99.445 
		495.822,102.508 496.13,105.266 497.659,111.698 498.579,112.312 498.888,113.843 499.195,116.906 498.274,119.664 
		498.274,120.889 500.416,121.806 504.709,122.115 506.239,123.34 508.69,123.647 509.305,125.484 510.223,126.404 509.917,128.853 
		511.142,130.999 512.063,131.918 514.205,132.53 516.351,136.514 519.416,139.27 520.028,140.189 520.336,142.639 519.107,143.559 
		518.19,145.397 517.885,147.848 519.107,150.606 520.944,151.218 521.867,154.281 522.479,154.894 524.318,156.119 
		524.622,157.345 524.011,158.876 523.705,162.245 526.461,163.778 527.074,165.003 528.301,166.228 529.216,168.68 
		528.301,172.356 529.216,174.499 528.913,178.789 531.055,181.852 531.976,182.159 534.119,186.448 534.733,188.593 
		534.733,189.818 536.878,195.026 536.572,197.783 537.492,200.541 537.184,204.216 538.411,205.749 539.025,207.28 
		539.944,208.198 539.634,209.118 538.411,210.036 537.799,210.956 539.332,214.018 537.799,215.551 537.492,217.083 
		535.042,217.696 533.201,218.92 532.59,221.066 531.671,222.596 532.283,224.741 530.14,226.578 529.833,229.031 527.994,232.705 
		525.238,234.546 522.785,235.465 521.251,238.222 521.867,241.285 520.944,244.042 518.19,245.881 516.658,247.41 513.593,250.169 
		512.369,253.234 511.142,254.152 510.53,255.071 510.53,256.294 510.223,256.91 505.325,258.745 504.709,260.278 503.791,261.197 
		501.337,261.501 499.808,262.117 497.048,264.26 495.514,266.1 493.063,267.324 492.759,267.324 492.146,266.403 491.533,265.79 
		488.471,265.18 485.714,265.79 485.098,266.403 485.403,269.159 482.953,272.531 478.36,273.449 475.602,276.819 473.149,277.432 
		469.474,279.274 466.408,283.865 463.653,286.313 462.427,286.623 461.814,285.397 460.894,284.479 457.833,284.787 
		453.233,282.948 451.09,282.642 449.561,282.948 448.026,284.172 445.574,284.787 443.123,286.932 441.288,286.313 
		439.756,286.623 431.788,282.335 427.498,283.865 427.191,283.56 426.885,282.642 425.049,282.028 425.661,278.351 424.74,275.289 
		425.354,273.146 426.885,272.836 427.805,270.081 427.191,267.324 427.498,264.872 425.661,262.729 426.272,259.358 
		425.049,256.294 424.74,254.152 424.126,252.923 421.674,252.315 420.146,251.702 417.694,250.169 416.468,248.637 
		415.857,244.652 416.468,240.365 415.243,237.304 408.197,235.465 406.664,236.074 405.439,235.769 404.213,232.705 
		404.213,230.255 402.989,229.333 402.067,226.578 402.989,224.434 402.989,223.517 403.906,223.517 404.52,222.596 404.52,219.84 
		403.292,219.84 402.067,220.147 401.455,219.84 397.779,220.147 396.554,221.371 395.021,221.678 391.959,223.209 389.506,223.517 
		386.749,224.741 385.215,222.903 383.069,222.903 380.928,223.517 376.637,223.517 374.491,221.678 373.881,221.678 
		372.654,219.84 372.961,219.84 372.654,218.307 371.431,217.083 370.204,217.696 369.283,217.083 367.444,217.083 365.607,216.777 
		364.381,215.551 362.236,215.856 360.705,214.63 357.334,213.406 354.885,210.648 353.659,207.28 351.819,206.666 351.208,205.749 
		352.127,205.135 352.433,203.603 350.594,200.846 349.062,197.477 349.062,195.332 347.225,191.962 348.757,190.429 
		349.979,191.044 350.287,190.737 353.045,188.287 353.045,187.366 352.127,186.448 352.433,185.835 357.028,182.159 
		358.866,181.852 360.093,180.015 360.399,178.178 361.93,174.499 361.93,172.662 360.705,169.599 360.705,167.76 362.545,165.615 
		363.463,162.859 366.527,160.408 366.833,159.796 365.916,158.264 367.444,154.589 370.509,154.894 373.269,154.281 
		374.188,153.362 375.411,153.055 377.249,153.669 382.153,153.055 383.379,152.444 383.991,151.524 386.749,148.766 
		387.361,146.01 387.361,143.559 388.893,142.334 390.424,142.334 393.182,143.254 396.246,142.029 398.085,142.334 401.146,141.72 
		404.824,142.639 405.439,142.639 406.971,140.803 406.971,137.125 409.114,133.755 409.114,133.141 407.584,132.53 
		407.891,128.853 408.5,128.241 410.033,127.323 411.564,125.79 411.26,122.423 410.033,120.276 413.711,116.906 413.098,115.68 
		413.098,115.375 414.938,112.616 418.001,110.168 418.001,108.329 419.224,104.959 419.224,103.427 421.371,102.202 
		422.598,98.219 424.126,97.301 424.126,96.073 425.049,94.544 425.968,93.623 427.805,93.012 429.031,91.479 430.563,90.561 
		433.319,89.948 436.383,90.255 438.222,89.643 440.673,87.804 444.044,85.966 444.964,85.046 445.267,83.209 447.718,82.594 
		449.865,81.063 452.315,81.676 459.057,80.758 463.039,78.921 463.039,76.162 465.186,76.162 467.636,77.082 469.78,78.921 
		472.538,79.227 	"/>
	
		<polygon fill="#767677" stroke="var(--blackish)" stroke-width="0.5" stroke-linecap="round" stroke-linejoin="round" stroke-miterlimit="10" points="
		346.61,248.332 349.367,249.557 357.028,256.6 358.255,257.827 356.108,260.892 353.659,265.18 351.208,263.646 346.305,264.26 
		342.016,265.79 342.016,265.18 336.193,266.71 334.354,259.051 334.049,256.6 335.58,253.234 335.58,251.702 338.951,249.557 
		340.48,248.023 341.401,246.185 342.321,246.185 343.853,244.959 347.529,244.959 	"/>
	
		<polygon fill="#767677" stroke="var(--blackish)" stroke-width="0.5" stroke-linecap="round" stroke-linejoin="round" stroke-miterlimit="10" points="
		362.236,259.972 363.463,267.938 362.85,271.308 361.013,276.819 357.643,278.965 355.496,279.274 352.127,278.965 
		340.176,280.188 339.563,277.737 339.255,277.126 338.951,276.819 336.193,266.71 342.016,265.18 342.016,265.79 346.305,264.26 
		351.208,263.646 353.659,265.18 356.108,260.892 358.255,257.827 	"/>
	
		<polygon fill="#767677" stroke="var(--blackish)" stroke-width="0.5" stroke-linecap="round" stroke-linejoin="round" stroke-miterlimit="10" points="
		404.52,219.84 404.52,222.596 403.906,223.517 402.989,223.517 402.989,224.434 402.067,226.578 402.989,229.333 404.213,230.255 
		404.213,232.705 405.439,235.769 406.664,236.074 408.197,235.465 415.243,237.304 416.468,240.365 415.857,244.652 
		416.468,248.637 417.694,250.169 420.146,251.702 421.674,252.315 424.126,252.923 424.74,254.152 425.049,256.294 
		426.272,259.358 425.661,262.729 427.498,264.872 427.191,267.324 427.805,270.081 426.885,272.836 425.354,273.146 
		424.74,275.289 425.661,278.351 425.049,282.028 424.126,282.642 422.901,284.787 419.224,284.172 412.485,279.578 
		408.197,279.274 403.598,274.062 401.455,272.836 401.455,271.919 401.146,270.695 399.923,268.857 397.472,266.403 
		397.472,264.566 396.859,263.341 394.716,261.501 393.796,259.972 391.345,258.439 387.973,257.827 384.604,256.294 
		378.17,257.213 377.556,254.764 370.509,255.989 357.028,256.6 349.367,249.557 346.61,248.332 347.529,244.959 350.594,244.042 
		356.108,241.898 362.85,238.528 375.106,233.014 379.089,230.562 379.396,230.867 382.459,227.193 386.749,224.741 
		389.506,223.517 391.959,223.209 395.021,221.678 396.554,221.371 397.779,220.147 401.455,219.84 402.067,220.147 403.292,219.84 
			"/>
	
		<polygon fill="#767677" stroke="var(--blackish)" stroke-width="0.5" stroke-linecap="round" stroke-linejoin="round" stroke-miterlimit="10" points="
		323.325,256.294 327.002,257.213 334.354,259.051 336.193,266.71 338.951,276.819 339.255,277.126 338.644,278.351 
		333.128,280.804 331.596,281.109 326.082,281.109 318.423,281.109 318.423,282.335 314.44,282.335 314.44,281.415 318.423,281.109 
		317.811,280.499 317.811,278.047 314.746,278.047 315.052,277.432 315.357,267.938 315.357,267.324 315.052,267.631 
		314.746,263.952 309.23,264.26 309.23,261.501 312.601,261.197 312.601,259.972 313.826,259.664 313.826,260.892 314.44,260.892 
		313.826,256.294 314.44,255.071 315.666,254.457 318.117,255.376 318.117,254.457 318.117,254.152 	"/>
	
		<polygon fill="#BDBDBD" stroke="var(--blackish)" stroke-width="0.5" stroke-linecap="round" stroke-linejoin="round" stroke-miterlimit="10" points="
		300.04,284.172 300.652,284.172 306.474,282.948 311.681,281.109 312.294,282.948 312.294,283.253 308.005,295.201 
		303.717,306.843 303.408,310.823 294.218,306.843 297.896,301.635 295.135,298.876 293.91,299.185 293.91,299.49 288.09,299.794 
		290.542,293.364 291.767,291.22 291.767,284.787 293.299,285.094 293.91,284.479 294.83,284.787 295.75,279.884 	"/>
	
		<polygon fill="#BDBDBD" stroke="var(--blackish)" stroke-width="0.5" stroke-linecap="round" stroke-linejoin="round" stroke-miterlimit="10" points="
		295.443,261.501 295.75,260.278 302.184,260.892 302.184,266.71 303.103,271 300.652,271.919 291.46,270.081 288.09,269.469 
		287.784,265.79 287.171,265.18 287.171,260.278 292.378,260.278 	"/>
	
		<polygon fill="#BDBDBD" stroke="var(--blackish)" stroke-width="0.5" stroke-linecap="round" stroke-linejoin="round" stroke-miterlimit="10" points="
		322.713,240.67 323.937,240.67 324.244,243.122 326.082,243.735 326.082,246.185 326.388,246.185 326.388,249.557 327.615,249.557 
		327.002,257.213 323.325,256.294 318.117,254.152 314.746,250.169 313.826,243.429 313.213,241.898 317.502,240.059 
		319.647,240.059 319.342,239.754 319.647,239.754 322.405,240.059 	"/>
	
		<polygon fill="#BDBDBD" stroke="var(--blackish)" stroke-width="0.5" stroke-linecap="round" stroke-linejoin="round" stroke-miterlimit="10" points="
		346.918,313.58 346.61,314.192 346.305,318.178 344.467,318.178 345.691,323.077 337.417,325.53 337.417,324.611 335.58,316.34 
		334.354,303.474 334.662,303.474 338.644,302.861 342.016,301.022 344.159,300.406 345.691,300.406 346.61,307.454 346.61,313.276 
			"/>
	
		<polygon fill="#BDBDBD" stroke="var(--blackish)" stroke-width="0.5" stroke-linecap="round" stroke-linejoin="round" stroke-miterlimit="10" points="
		309.537,222.291 312.601,222.596 324.244,227.497 323.937,228.724 324.244,236.381 323.937,240.67 322.713,240.67 322.405,240.059 
		319.647,239.754 319.342,239.754 319.647,240.059 317.502,240.059 313.213,241.898 309.845,235.769 307.699,230.562 
		304.636,222.596 	"/>
	
		<polygon fill="#BDBDBD" stroke="var(--blackish)" stroke-width="0.5" stroke-linecap="round" stroke-linejoin="round" stroke-miterlimit="10" points="
		308.924,200.234 309.23,202.073 312.906,203.296 313.521,207.28 310.454,209.423 309.845,212.489 309.23,212.794 308.005,215.244 
		309.537,222.291 304.636,222.596 307.699,230.562 307.393,230.867 307.699,231.483 307.087,231.785 306.779,230.867 
		305.861,231.483 303.103,231.785 300.04,235.465 298.812,235.465 296.975,236.69 295.443,236.074 294.83,236.381 293.604,236.074 
		292.378,236.69 290.847,236.381 288.703,237.304 287.784,235.769 286.557,235.156 283.186,235.465 282.269,234.238 
		282.269,233.321 279.511,232.095 276.141,229.333 270.933,225.968 258.063,214.939 258.982,213.406 260.208,211.873 
		260.821,208.812 260.514,207.893 264.804,209.118 295.75,200.234 300.652,198.7 299.426,197.169 300.652,196.864 305.861,198.395 
		307.393,199.621 	"/>
	
		<polygon fill="#BDBDBD" stroke="var(--blackish)" stroke-width="0.5" stroke-linecap="round" stroke-linejoin="round" stroke-miterlimit="10" points="
		372.347,272.836 375.411,273.449 376.944,273.146 381.233,274.371 382.153,271 401.455,271.919 401.455,272.836 403.598,274.062 
		408.197,279.274 412.485,279.578 419.224,284.172 422.901,284.787 423.515,288.155 420.758,288.155 417.386,289.994 
		415.549,289.687 410.647,287.849 408.5,289.382 406.357,289.687 404.213,291.22 402.067,293.364 399.31,293.057 399.004,292.136 
		397.779,292.136 396.246,291.527 395.326,292.443 393.488,292.443 388.587,293.669 384.91,296.733 383.379,297.039 378.17,299.185 
		376.944,299.49 371.733,299.49 356.416,298.573 355.193,298.876 355.496,296.121 356.416,293.669 359.172,287.542 361.013,276.819 
		362.85,271.308 367.444,272.836 	"/>
	
		<polygon fill="#969696" stroke="var(--blackish)" stroke-width="0.5" stroke-linecap="round" stroke-linejoin="round" stroke-miterlimit="10" points="
		327.307,319.709 321.18,318.482 312.906,314.807 319.036,299.49 324.856,301.635 330.982,302.861 	"/>
	
		<polygon fill="#969696" stroke="var(--blackish)" stroke-width="0.5" stroke-linecap="round" stroke-linejoin="round" stroke-miterlimit="10" points="
		334.662,303.474 334.354,303.474 330.982,302.861 324.856,301.635 319.036,299.49 326.082,281.109 331.596,281.109 	"/>
	
		<polygon fill="#969696" stroke="var(--blackish)" stroke-width="0.5" stroke-linecap="round" stroke-linejoin="round" stroke-miterlimit="10" points="
		359.172,287.542 356.416,293.669 355.496,296.121 355.193,298.876 354.577,298.264 344.77,297.653 342.321,286.932 
		341.401,285.094 340.176,280.188 352.127,278.965 355.496,279.274 357.643,278.965 361.013,276.819 	"/>
	
		<polygon fill="#969696" stroke="var(--blackish)" stroke-width="0.5" stroke-linecap="round" stroke-linejoin="round" stroke-miterlimit="10" points="
		315.052,267.631 315.357,267.324 315.357,267.938 315.052,277.432 314.746,278.047 317.811,278.047 317.811,280.499 
		318.423,281.109 314.44,281.415 311.681,281.109 306.474,282.948 300.652,284.172 300.04,284.172 295.75,279.884 290.542,278.047 
		291.46,277.126 291.46,270.081 300.652,271.919 303.103,271 302.184,266.71 306.474,266.1 308.924,266.1 309.23,264.26 
		314.746,263.952 	"/>
	
		<polygon fill="#969696" stroke="var(--blackish)" stroke-width="0.5" stroke-linecap="round" stroke-linejoin="round" stroke-miterlimit="10" points="
		341.096,238.528 342.016,239.141 345.383,242.816 343.853,244.959 342.321,246.185 341.401,246.185 340.48,248.023 
		338.951,249.557 335.58,251.702 335.58,253.234 334.049,256.6 334.354,259.051 327.002,257.213 327.615,249.557 326.388,249.557 
		326.388,246.185 326.082,246.185 326.082,243.735 324.244,243.122 323.937,240.67 324.244,236.381 323.937,228.724 
		324.244,227.497 331.596,230.867 337.113,235.769 339.255,236.995 339.87,238.222 	"/>
	
		<polygon fill="#969696" stroke="var(--blackish)" stroke-width="0.5" stroke-linecap="round" stroke-linejoin="round" stroke-miterlimit="10" points="
		415.549,289.687 417.386,289.994 420.758,288.155 423.515,288.155 423.823,290.914 422.901,292.443 421.066,294.587 
		417.694,295.508 412.792,300.406 411.564,301.325 409.422,306.843 406.971,307.454 404.52,308.988 404.824,312.052 402.067,313.58 
		401.455,315.725 399.31,316.031 396.554,316.031 395.633,316.948 394.103,317.258 388.587,315.725 385.215,315.725 
		382.153,316.031 381.233,316.646 380.313,317.868 378.781,319.401 377.249,319.401 375.411,320.323 375.106,320.934 
		375.106,320.323 374.188,319.401 372.961,318.482 365.302,318.482 370.204,325.53 358.255,328.283 358.557,330.125 
		354.885,330.736 351.514,329.203 346.305,331.04 345.691,326.755 346.61,326.448 345.691,323.077 344.467,318.178 346.305,318.178 
		346.61,314.192 346.918,313.58 346.61,313.276 346.61,307.454 345.691,300.406 345.691,298.876 344.77,297.653 354.577,298.264 
		355.193,298.876 356.416,298.573 371.733,299.49 376.944,299.49 378.17,299.185 383.379,297.039 384.91,296.733 388.587,293.669 
		393.488,292.443 395.326,292.443 396.246,291.527 397.779,292.136 399.004,292.136 399.31,293.057 402.067,293.364 404.213,291.22 
		406.357,289.687 408.5,289.382 410.647,287.849 	"/>
	
		<polygon fill="#969696" stroke="var(--blackish)" stroke-width="0.5" stroke-linecap="round" stroke-linejoin="round" stroke-miterlimit="10" points="
		271.852,272.226 276.141,272.531 276.447,272.531 277.059,274.981 288.703,277.432 289.008,277.432 289.316,278.965 
		290.542,278.047 295.75,279.884 294.83,284.787 293.91,284.479 293.299,285.094 291.767,284.787 291.767,291.22 290.542,293.364 
		288.09,299.794 293.91,299.49 293.91,299.185 295.135,298.876 297.896,301.635 294.218,306.843 277.979,330.125 276.752,332.575 
		275.833,332.575 275.528,332.881 271.544,331.656 269.094,330.736 262.66,324.611 254.387,318.178 255.919,316.34 259.291,313.89 
		259.594,311.131 258.063,310.518 258.063,309.906 255.613,311.436 255.307,312.661 253.162,315.113 249.485,314.502 
		243.969,312.97 242.744,312.97 238.455,315.113 236.003,312.355 235.085,311.74 232.021,311.74 229.876,312.661 228.344,312.661 
		227.424,312.355 224.361,310.518 222.828,310.21 221.91,309.601 221.296,308.371 220.072,307.148 220.072,306.231 217.621,305.313 
		214.557,301.325 213.331,301.325 211.492,300.406 210.879,301.022 208.429,301.325 207.204,302.245 205.671,300.406 
		203.832,300.104 202.913,298.264 203.526,295.508 204.751,293.977 205.671,290.3 206.284,289.687 207.204,289.382 210.266,288.767 
		211.187,286.932 213.636,286.623 217.927,284.479 220.377,283.865 223.135,283.56 225.586,282.948 230.182,283.865 232.021,283.56 
		234.166,284.479 239.068,283.865 242.131,277.737 242.744,277.126 244.889,277.126 247.34,276.516 248.872,277.126 
		252.549,277.126 254.08,276.516 255.307,275.289 258.063,273.757 258.677,274.677 260.821,274.981 262.66,274.981 262.353,273.757 
		262.66,273.757 268.787,274.677 271.238,274.677 	"/>
	
		<polygon fill="#D9D9D8" stroke="var(--blackish)" stroke-width="0.5" stroke-linecap="round" stroke-linejoin="round" stroke-miterlimit="10" points="
		340.176,280.188 341.401,285.094 342.321,286.932 344.77,297.653 345.691,298.876 345.691,300.406 344.159,300.406 
		342.016,301.022 338.644,302.861 334.662,303.474 331.596,281.109 333.128,280.804 338.644,278.351 339.255,277.126 
		339.563,277.737 	"/>
	
		<polygon fill="#D9D9D8" stroke="var(--blackish)" stroke-width="0.5" stroke-linecap="round" stroke-linejoin="round" stroke-miterlimit="10" points="
		319.036,299.49 308.005,295.201 312.294,283.253 312.294,282.948 311.681,281.109 314.44,281.415 314.44,282.335 318.423,282.335 
		318.423,281.109 326.082,281.109 	"/>
	
		<polygon fill="#D9D9D8" stroke="var(--blackish)" stroke-width="0.5" stroke-linecap="round" stroke-linejoin="round" stroke-miterlimit="10" points="
		303.103,244.652 307.699,248.023 309.845,250.474 318.117,254.457 318.117,255.376 315.666,254.457 314.44,255.071 
		313.826,256.294 314.44,260.892 313.826,260.892 313.826,259.664 312.601,259.972 312.601,261.197 309.23,261.501 309.23,264.26 
		308.924,266.1 306.474,266.1 302.184,266.71 302.184,260.892 295.75,260.278 298.201,248.637 295.135,246.8 295.75,246.185 
		297.896,245.881 299.426,244.959 	"/>
	
		<polygon fill="#D9D9D8" stroke="var(--blackish)" stroke-width="0.5" stroke-linecap="round" stroke-linejoin="round" stroke-miterlimit="10" points="
		309.845,235.769 313.213,241.898 313.826,243.429 314.746,250.169 318.117,254.152 318.117,254.457 309.845,250.474 
		307.699,248.023 303.103,244.652 299.426,244.959 297.896,245.881 295.75,246.185 295.135,246.8 293.299,248.023 289.621,247.41 
		278.591,247.717 273.383,248.944 270.933,248.332 268.173,248.637 268.173,243.735 279.511,232.095 282.269,233.321 
		282.269,234.238 283.186,235.465 286.557,235.156 287.784,235.769 288.703,237.304 290.847,236.381 292.378,236.69 
		293.604,236.074 294.83,236.381 295.443,236.074 296.975,236.69 298.812,235.465 300.04,235.465 303.103,231.785 305.861,231.483 
		306.779,230.867 307.087,231.785 307.699,231.483 307.393,230.867 307.699,230.562 	"/>
	
		<polygon fill="#D9D9D8" stroke="var(--blackish)" stroke-width="0.5" stroke-linecap="round" stroke-linejoin="round" stroke-miterlimit="10" points="
		327.307,319.709 326.694,323.077 323.019,339.314 317.197,338.09 308.618,334.108 308.005,334.412 306.166,333.492 
		308.005,328.283 308.311,323.996 309.537,323.996 312.906,314.807 321.18,318.482 	"/>
	
		<polygon fill="#D9D9D8" stroke="var(--blackish)" stroke-width="0.5" stroke-linecap="round" stroke-linejoin="round" stroke-miterlimit="10" points="
		337.417,324.611 337.417,325.53 345.691,323.077 346.61,326.448 345.691,326.755 346.305,331.04 345.691,331.04 346.61,338.09 
		349.367,347.893 339.563,349.424 339.87,356.778 338.951,361.68 331.904,361.68 332.517,358.615 331.291,358.615 332.211,352.489 
		319.954,351.265 323.019,339.314 326.694,323.077 	"/>
	
		<polygon fill="#D9D9D8" stroke="var(--blackish)" stroke-width="0.5" stroke-linecap="round" stroke-linejoin="round" stroke-miterlimit="10" points="
		270.933,225.968 276.141,229.333 279.511,232.095 268.173,243.735 268.173,248.637 268.481,250.169 269.4,250.474 271.238,253.845 
		273.996,254.764 275.222,254.764 277.059,255.682 279.816,255.682 284.106,256.91 286.866,256.91 287.171,260.278 287.171,265.18 
		287.784,265.79 288.09,269.469 291.46,270.081 291.46,277.126 290.542,278.047 289.316,278.965 289.008,277.432 288.703,277.432 
		277.059,274.981 276.447,272.531 276.141,272.531 271.852,272.226 271.238,274.677 268.787,274.677 262.66,273.757 
		262.353,273.757 262.66,274.981 260.821,274.981 258.677,274.677 258.063,273.757 255.307,275.289 254.08,276.516 252.549,277.126 
		248.872,277.126 247.34,276.516 244.889,277.126 242.744,277.126 242.131,277.737 239.068,283.865 234.166,284.479 232.021,283.56 
		230.182,283.865 225.586,282.948 223.135,283.56 220.377,283.865 217.927,284.479 213.636,286.623 211.187,286.932 
		210.266,288.767 207.204,289.382 201.993,282.335 200.462,282.948 199.236,282.642 197.399,280.499 194.334,279.274 
		193.722,275.593 194.334,273.757 193.722,271 191.577,268.857 191.27,267.938 191.577,263.646 191.885,262.729 192.801,261.809 
		194.027,259.664 193.722,256.91 194.947,253.845 194.027,252.315 194.641,251.392 192.497,248.944 193.11,246.491 192.801,244.042 
		192.188,242.509 192.801,240.976 193.416,237.912 193.722,235.156 194.334,234.238 196.173,232.4 199.544,231.483 201.688,230.255 
		204.139,229.333 207.204,227.497 208.429,226.275 210.573,225.045 211.798,225.354 214.249,226.578 215.169,227.805 
		217.007,228.112 218.846,229.641 220.377,228.724 224.361,229.031 225.28,228.724 225.894,227.805 226.812,227.805 
		228.344,229.031 231.407,228.724 232.939,229.031 237.23,231.483 238.455,231.785 242.438,233.625 243.049,233.321 243.357,232.4 
		245.501,231.174 245.501,229.641 246.727,228.724 247.647,226.275 248.872,225.968 250.403,221.678 254.693,219.533 255,218.615 
		258.063,214.939 	"/>
</g>
<polyline fill="none" stroke="var(--blackish)" stroke-width="0.75" stroke-linecap="round" stroke-linejoin="round" stroke-miterlimit="10" points="
	472.538,79.227 473.764,81.676 474.988,82.594 475.909,82.9 477.132,82.288 478.36,82.288 481.118,84.433 482.648,84.74 
	484.18,87.804 484.485,91.174 486.633,93.318 488.775,94.237 490.614,93.929 494.6,93.929 495.211,94.237 495.822,95.156 
	496.436,99.445 495.822,102.508 496.13,105.266 497.659,111.698 498.579,112.312 498.888,113.843 499.195,116.906 498.274,119.664 
	498.274,120.889 500.416,121.806 504.709,122.115 506.239,123.34 508.69,123.647 509.305,125.484 510.223,126.404 509.917,128.853 
	511.142,130.999 512.063,131.918 514.205,132.53 516.351,136.514 519.416,139.27 520.028,140.189 520.336,142.639 519.107,143.559 
	518.19,145.397 517.885,147.848 519.107,150.606 520.944,151.218 521.867,154.281 522.479,154.894 524.318,156.119 524.622,157.345 
	524.011,158.876 523.705,162.245 526.461,163.778 527.074,165.003 528.301,166.228 529.216,168.68 528.301,172.356 529.216,174.499 
	528.913,178.789 531.055,181.852 531.976,182.159 534.119,186.448 534.733,188.593 534.733,189.818 536.878,195.026 
	536.572,197.783 537.492,200.541 537.184,204.216 538.411,205.749 539.025,207.28 539.944,208.198 539.634,209.118 538.411,210.036 
	537.799,210.956 539.332,214.018 537.799,215.551 537.492,217.083 535.042,217.696 533.201,218.92 532.59,221.066 531.671,222.596 
	532.283,224.741 530.14,226.578 529.833,229.031 527.994,232.705 525.238,234.546 522.785,235.465 521.251,238.222 521.867,241.285 
	520.944,244.042 518.19,245.881 516.658,247.41 513.593,250.169 512.369,253.234 511.142,254.152 510.53,255.071 510.53,256.294 
	510.223,256.91 505.325,258.745 504.709,260.278 503.791,261.197 501.337,261.501 499.808,262.117 497.048,264.26 495.514,266.1 
	493.063,267.324 492.759,267.324 492.146,266.403 491.533,265.79 488.471,265.18 485.714,265.79 485.098,266.403 485.403,269.159 
	482.953,272.531 478.36,273.449 475.602,276.819 473.149,277.432 469.474,279.274 466.408,283.865 463.653,286.313 462.427,286.623 
	461.814,285.397 460.894,284.479 457.833,284.787 453.233,282.948 451.09,282.642 449.561,282.948 448.026,284.172 445.574,284.787 
	443.123,286.932 441.288,286.313 439.756,286.623 431.788,282.335 427.498,283.865 427.191,283.56 426.885,282.642 425.049,282.028 
	424.126,282.642 422.901,284.787 423.515,288.155 423.823,290.914 422.901,292.443 421.066,294.587 417.694,295.508 
	412.792,300.406 411.564,301.325 409.422,306.843 406.971,307.454 404.52,308.988 404.824,312.052 402.067,313.58 401.455,315.725 
	399.31,316.031 396.554,316.031 395.633,316.948 394.103,317.258 388.587,315.725 385.215,315.725 382.153,316.031 381.233,316.646 
	380.313,317.868 378.781,319.401 377.249,319.401 375.411,320.323 375.106,320.934 375.106,320.323 374.188,319.401 
	372.961,318.482 365.302,318.482 370.204,325.53 358.255,328.283 358.557,330.125 354.885,330.736 351.514,329.203 346.305,331.04 
	345.691,331.04 346.61,338.09 349.367,347.893 339.563,349.424 339.87,356.778 338.951,361.68 331.904,361.68 332.517,358.615 
	331.291,358.615 332.211,352.489 319.954,351.265 323.019,339.314 317.197,338.09 308.618,334.108 308.005,334.412 306.166,333.492 
	308.005,328.283 308.311,323.996 309.537,323.996 312.906,314.807 303.408,310.823 294.218,306.843 277.979,330.125 
	276.752,332.575 275.833,332.575 275.528,332.881 271.544,331.656 269.094,330.736 262.66,324.611 254.387,318.178 255.919,316.34 
	259.291,313.89 259.594,311.131 258.063,310.518 258.063,309.906 255.613,311.436 255.307,312.661 253.162,315.113 249.485,314.502 
	243.969,312.97 242.744,312.97 238.455,315.113 236.003,312.355 235.085,311.74 232.021,311.74 229.876,312.661 228.344,312.661 
	227.424,312.355 224.361,310.518 222.828,310.21 221.91,309.601 221.296,308.371 220.072,307.148 220.072,306.231 217.621,305.313 
	214.557,301.325 213.331,301.325 211.492,300.406 210.879,301.022 208.429,301.325 207.204,302.245 205.671,300.406 
	203.832,300.104 202.913,298.264 203.526,295.508 204.751,293.977 205.671,290.3 206.284,289.687 207.204,289.382 201.993,282.335 
	200.462,282.948 199.236,282.642 197.399,280.499 194.334,279.274 193.722,275.593 194.334,273.757 193.722,271 191.577,268.857 
	191.27,267.938 191.577,263.646 191.885,262.729 192.801,261.809 194.027,259.664 193.722,256.91 194.947,253.845 194.027,252.315 
	194.641,251.392 192.497,248.944 193.11,246.491 192.801,244.042 192.188,242.509 192.801,240.976 193.416,237.912 193.722,235.156 
	194.334,234.238 196.173,232.4 199.544,231.483 201.688,230.255 204.139,229.333 207.204,227.497 208.429,226.275 210.573,225.045 
	211.798,225.354 214.249,226.578 215.169,227.805 217.007,228.112 218.846,229.641 220.377,228.724 224.361,229.031 225.28,228.724 
	225.894,227.805 226.812,227.805 228.344,229.031 231.407,228.724 232.939,229.031 237.23,231.483 238.455,231.785 242.438,233.625 
	243.049,233.321 243.357,232.4 245.501,231.174 245.501,229.641 246.727,228.724 247.647,226.275 248.872,225.968 250.403,221.678 
	254.693,219.533 255,218.615 258.063,214.939 258.982,213.406 260.208,211.873 260.821,208.812 260.514,207.893 264.804,209.118 
	295.75,200.234 300.652,198.7 299.426,197.169 300.652,196.864 305.861,198.395 307.393,199.621 308.924,200.234 309.23,202.073 
	312.906,203.296 314.44,202.684 316.277,202.684 319.036,201.765 321.18,202.377 323.325,201.765 324.549,203.603 326.694,205.441 
	327.307,206.666 327.921,206.973 329.147,208.812 331.596,209.423 334.662,208.198 338.644,208.198 340.787,209.118 
	345.383,207.585 346.918,207.585 348.757,206.666 350.287,206.666 351.208,205.749 352.127,205.135 352.433,203.603 
	350.594,200.846 349.062,197.477 349.062,195.332 347.225,191.962 348.757,190.429 349.979,191.044 350.287,190.737 
	353.045,188.287 353.045,187.366 352.127,186.448 352.433,185.835 357.028,182.159 358.866,181.852 360.093,180.015 
	360.399,178.178 361.93,174.499 361.93,172.662 360.705,169.599 360.705,167.76 362.545,165.615 363.463,162.859 366.527,160.408 
	366.833,159.796 365.916,158.264 367.444,154.589 370.509,154.894 373.269,154.281 374.188,153.362 375.411,153.055 
	377.249,153.669 382.153,153.055 383.379,152.444 383.991,151.524 386.749,148.766 387.361,146.01 387.361,143.559 388.893,142.334 
	390.424,142.334 393.182,143.254 396.246,142.029 398.085,142.334 401.146,141.72 404.824,142.639 405.439,142.639 406.971,140.803 
	406.971,137.125 409.114,133.755 409.114,133.141 407.584,132.53 407.891,128.853 408.5,128.241 410.033,127.323 411.564,125.79 
	411.26,122.423 410.033,120.276 413.711,116.906 413.098,115.68 413.098,115.375 414.938,112.616 418.001,110.168 418.001,108.329 
	419.224,104.959 419.224,103.427 421.371,102.202 422.598,98.219 424.126,97.301 424.126,96.073 425.049,94.544 425.968,93.623 
	427.805,93.012 429.031,91.479 430.563,90.561 433.319,89.948 436.383,90.255 438.222,89.643 440.673,87.804 444.044,85.966 
	444.964,85.046 445.267,83.209 447.718,82.594 449.865,81.063 452.315,81.676 459.057,80.758 463.039,78.921 463.039,76.162 
	465.186,76.162 467.636,77.082 469.78,78.921 472.538,79.227 "/>
	
<!-- legend -->

<rect x="607.979" y="231.135" fill="#767677" stroke="var(--blackish)" stroke-width="0.5" stroke-linecap="round" stroke-linejoin="round" stroke-miterlimit="10" width="20.332" height="14.145"/>
<rect x="607.979" y="254.71" fill="#969696" stroke="var(--blackish)" stroke-width="0.5" stroke-linecap="round" stroke-linejoin="round" stroke-miterlimit="10" width="20.332" height="14.144"/>
<rect x="607.979" y="278.285" fill="#BDBDBD" stroke="var(--blackish)" stroke-width="0.5" stroke-linecap="round" stroke-linejoin="round" stroke-miterlimit="10" width="20.332" height="14.146"/>
<rect x="607.979" y="301.861" fill="#D9D9D8" stroke="var(--blackish)" stroke-width="0.5" stroke-linecap="round" stroke-linejoin="round" stroke-miterlimit="10" width="20.332" height="14.146"/>
<rect x="607.979" y="325.434" fill="#F7F8F8" stroke="var(--blackish)" stroke-width="0.5" stroke-linecap="round" stroke-linejoin="round" stroke-miterlimit="10" width="20.332" height="14.145"/>

<text transform="matrix(1 0 0 1 606.2461 215.6838)" font-family="var(--serif)" fill="var(--accent)" font-size="12" font-weight="bold">People per Pharmacy</text>
<text transform="matrix(1 0 0 1 637.1885 241.3225)" font-family="var(--sans-serif)" font-size="10.6089">Q1 (2680-5,804)</text>
<text transform="matrix(1 0 0 1 637.1885 264.8977)" font-family="var(--sans-serif)" font-size="10.6089">Q2 (7,509-14,098)</text>
<text transform="matrix(1 0 0 1 637.1885 288.4719)" font-family="var(--sans-serif)" font-size="10.6089">Q3 (15,029-23,314)</text>
<text transform="matrix(1 0 0 1 637.1885 312.0471)" font-family="var(--sans-serif)" font-size="10.6089">Q1 (32,501-101,174)</text>
<text transform="matrix(1 0 0 1 637.1885 335.6213)" font-family="var(--sans-serif)" font-size="10.6089">no data</text>
<rect x="99.661" y="39.069" fill="none" stroke="var(--accent)" stroke-width="1.5" stroke-linecap="round" stroke-linejoin="round" stroke-miterlimit="10" width="487.717" height="374.511"/>
</svg>
