<?xml version="1.0" encoding="utf-8"?>
<!-- Generator: Adobe Illustrator 15.1.0, SVG Export Plug-In . SVG Version: 6.00 Build 0)  -->
<!DOCTYPE svg PUBLIC "-//W3C//DTD SVG 1.1//EN" "http://www.w3.org/Graphics/SVG/1.1/DTD/svg11.dtd">
<svg version="1.1" id="Layer_1" xmlns="http://www.w3.org/2000/svg" xmlns:xlink="http://www.w3.org/1999/xlink" x="0px" y="0px"
	 viewBox="-25 102.5 850 450" enable-background="new -25 102.5 850 450" xml:space="preserve">
<defs>
	<style type="text/css"><![CDATA[
		:root {
			--blackish:#494e52;
			--grey:#9FA1A4;
			--accent:#FF3636;
			--serif: Georgia, Times, serif;
			--sans-serif: Helvetica, sans-serif;
		}
	
		path {
		fill:var(--grey);
		stroke:#fff;
		stroke-width:2; 
		}
		
		path:hover {
		fill: var(--accent);
        opacity: 1;
		}
		
		tspan {
		fill: var(--accent);
		font-family: var(--serif);
		font-size: 0.8em;
		}
		
	]]></style>
  </defs>	 
	 
<g>
	<path id="_x31_3102" onmouseover="displayName('CERRILLOS','20208','824321')" stroke="#FFFFFF" stroke-width="2" d="
		M322.327,417.596l0.558,2.661l-0.003,0.018l-0.072,0.299l-0.005,0.017l-5.852,17.014l-6.341,16.908l-0.488,5.9l-13.059-5.597
		l5.088-7.854l-3.925-4.01l-1.72,1.058l-8.33,0.3l3.386-9.31l1.963-2.961l-0.152-9.148l4.455-0.195l1.508-7.006l6.186,6.022
		l8.941-1.542L322.327,417.596z"/>
	<path id="_x31_3131" onmouseover="displayName('SAN RAMÓN','no data','699758')" stroke="#FFFFFF" stroke-width="2" d="
		M355.072,449.934l1.8,18.376l2.259,11.944l-15.39-2.151l0.8-4.817l5.369-24.362L355.072,449.934z"/>
	<path id="_x31_3132" onmouseover="displayName('VITACURA','3284','2177039')" stroke="#FFFFFF" stroke-width="2" d="
		M430.478,335.935l-6.107,3.501l-4.797,4.997l-5.879,3.568l-17.609,7.816l-9.693,4.946l-12.373,4.233l-5.487,0.014l2.457-2.879
		l1.308-7.229l3.817-5.028l-1.265-5.476l2.358-2.742l1.631-6.4l0.073-4.223l-2.332-2.06l5.454-5.902l3.293-0.763l2.943-2.795
		l6.744,3.642l3.173-0.607l4.628,2.552l5.427-0.188l2.041,4.176l5.533,5.213l6.318,0.098l6.227-0.996L430.478,335.935z"/>
	<path id="_x31_3109" onmouseover="displayName('LA CISTERNA','7510','943768')" stroke="#FFFFFF" stroke-width="2" d="
		M344.541,473.285l-8.596-1.729l-12.025-5.391l-0.063-0.024l8.909-22.027l8.407,2.89l8.738,1.919L344.541,473.285z"/>
	<path id="_x31_3113" onmouseover="displayName('LA REINA','4639','1571510')" stroke="#FFFFFF" stroke-width="2" d="
		M451.772,404.058l-28.007-1.257l-1.102,4.925l-6.096-1.887l-14.046-0.146l-6.543-2.621l0.912-4.791l-1.847-11.205l-5.735-3.381
		l-1.5-1.565l19.489-1.11l10.043-1.487l0.807,3.462l9.509-1.523l4.591,2.533l4.817,0.624l3.642,2.193l4.401,5.058l0.782,4.3
		l3.767,3.363L451.772,404.058z"/>
	<path id="_x31_3129" onmouseover="displayName('SAN JOAQUÍN','94492','815054')" stroke="#FFFFFF" stroke-width="2" d="
		M363.363,415.916l3.123,9.873l3.239,15.707l1.725,3.757l-5.598,1.119l-4.688,2.692l-6.017,0.862l-4.018-32.639l9.798-3.921
		l1.04-1.538L363.363,415.916z"/>
	<path id="_x31_3117" onmouseover="displayName('LO PRADO','16042','740122')" stroke="#FFFFFF" stroke-width="2" d="
		M299.093,387.338l9.367,0.993l0.111,8.288l1.105,6.429l-3.642,1.018l-0.022,0.004l-13.003-2.436l-4.978-1.06l-1.198-6.009
		l-0.316-7.157L299.093,387.338z"/>
	<path id="_x31_3107" onmouseover="displayName('HUECHURABA','5804','1167996')" stroke="#FFFFFF" stroke-width="2" d="
		M379.31,308.732l3.507,2.079l1.674,5.045l3.778,3.659l-2.943,2.795l-3.293,0.763l-5.454,5.902l2.332,2.06l-0.073,4.223l-1.631,6.4
		l-2.358,2.742l1.265,5.476l-3.817,5.028l-1.308,7.229l-5.073-5.273l-3.233-1.362l-11.882-10.589l-10.55-4.986l-16.75-7.103
		l-4.652-0.481l-2.197-9.934l2.766-4.086l0.97-4.499l4.428-3.118l-0.912-5.591l8.823-2.369l6.06,0.218l4.828,5.004l3.61,5.154
		l3.544,0.773l4.465-1.888l5.925,0.138l3.11,1.382l8.822-2.355L379.31,308.732z"/>
	<path id="_x31_3116" onmouseover="displayName('LO ESPEJO','no data','660880')" stroke="#FFFFFF" stroke-width="2" d="
		M332.765,444.115l-8.909,22.027l-13.732-5.729l0.488-5.9l6.341-16.908L332.765,444.115z"/>
	<path id="_x31_3108" onmouseover="displayName('INDEPENDENCIA','16714','804697')" stroke="#FFFFFF" stroke-width="2" d="
		M339.697,358.803l0.69,3.686l2.676,0.779l0.43,8.53l1.646,0.226l-0.833,10.952l-12.804-4.293l-4.794-5.961l-1.367-9.524
		l-1.001-2.216l9.434-3.283L339.697,358.803z"/>
	<path id="_x31_3121" onmouseover="displayName('PEDRO AGUIRRE CERDA','101174','746555')" stroke="#FFFFFF" stroke-width="2" d="
		M332.765,444.115l-15.812-6.511l5.852-17.014l0.005-0.017l0.072-0.299l0.003-0.018l-0.558-2.661l3.743,0.151l5.872-0.451
		l10.839,0.15L332.765,444.115z"/>
	<path id="_x31_3115" onmouseover="displayName('LO BARNECHEA','4233','1718408')" stroke="#FFFFFF" stroke-width="2" d="
		M485.987,418.914l0.882-5.619l-1.615-4.051l3.314-3.882l1.364-3.93l-0.669-7.26l-2.477-3.157l1.096-5.025l-3.345-9.381
		l-3.482-0.637l-5.592-3.342l-1.753-2.097l-1.092-5.637l0.973-6.523l-1.742-4.106l-10.432-2.671l-3.618,0.254l-2.17-7.844
		l-2.851-5.294l3.656-5.594l-0.234-4.039l-9.721,0.344l-8.438,4.35l-7.565,2.161l-2.116-2.531l-6.227,0.996l-6.318-0.098
		l-5.533-5.213l-2.041-4.176l-5.427,0.188l-4.628-2.552l-3.173,0.607l-6.744-3.642l-3.778-3.659l-1.674-5.045l-3.507-2.079
		l1.706-3.303l-2.88-4.116l-1.901-7.961l-2.887-4.73l4.726-1.735l3.867-3.622l-0.952-3.569l11.083-8.212l2.879-8.075l-1.976-9.846
		l2.549-2.86l1.297-4.186l4.743-3.558l-1.269-3.006l2.509-5.451l4.484,0.569l4.975-2.425l4.424,0.756l7.229-0.926l6.533-6.111
		l0.802-7.605l2.566-1.716l6.274,1.128l4.188-1.781l7.163-0.31l5.278,1.42l2.926-2.682l0.08-5.504l3.338-4.783l-2.272-1.882
		l0.427-5.108l5.03-4.382l-0.132-4.986l-2.107-3.172l5.655-4.765l-0.951-2.378l2.732-3.857l4.069-3.403l2.025-9.695l2.95-2.108
		l2.032-5.707l4.766-6.594l2.684-0.693l3.849-3.74l11.251-1.253l8.161-5.132l1.866-4.388l6.713-2.923l3.655,0.906l9.726-1.315
		l5.742-2.577l0.023-3.878l6.284,1.043l3.405,2.635l3.886,0.359l1.959,3.909l2.801,1.418l3.504-0.84l4.168,3.227l2.366,0.409
		l2.084,4.562l0.432,4.85l5.947,4.54l8.416-0.803l2.161,1.825l0.511,6.194l-0.85,4.506l2.59,13.146l1.709,1.275l0.52,6.229
		l-0.954,5.848l2.972,1.487l6.096,0.444l5.869,2.224l2.091,3.982l-0.197,3.542l3.046,4.562l3.145,0.708l3.064,5.939l5.326,5.031
		l0.46,3.735l-3.454,4.03l-0.065,3.27l1.741,4.065l2.406,1.038l1.355,4.104l3.436,2.845l-0.641,8.82l3.822,2.224l4.176,7.075
		l-1.288,5.528l1.014,2.915l-0.149,6.105l4.13,5.184l3.351,6.097l0.856,4.887l2.952,7.408l0.774,7.788l-0.473,5.398l3.909,7.065
		l-2.624,2.616l2.004,4.538l-2.777,4.632l-6.196,2.681l-2.002,5.132l0.657,3.249l-2.885,2.661l-0.502,3.273l-2.801,5.582
		l-7.226,3.58l-2.262,3.995l0.681,4.507l-1.232,4.1l-3.931,2.55l-6.877,6.304l-1.563,4.563l-2.889,2.613l-0.241,2.547l-7.021,2.643
		l-2.234,3.384l-5.937,1.347l-5.89,6.029l-3.614,1.853l-2.419-2.33l-4.514-0.967l-3.922,0.834l-0.487,4.813l-3.471,4.874
		l-6.71,1.656l-3.68,4.594l-3.651,0.758l-5.199,2.655l-4.375,6.706l-6.105,4.11l-1.896-3.151l-4.678,0.618l-6.297-2.912l-5.56-0.074
		l-5.925,2.878l-3.336,3.104l-4.974-0.479l-11.306-5.997l-6.295,1.89L485.987,418.914z"/>
	<path id="_x31_3130" onmouseover="displayName('SAN MIGUEL','8304','1181117')" stroke="#FFFFFF" stroke-width="2" d="
		M355.146,449.927l-0.074,0.007l-5.162-1.011l-8.738-1.919l-8.407-2.89l10.016-26.668l8.346-0.158L355.146,449.927z"/>
	<path id="_x31_3126" onmouseover="displayName('QUINTA NORMAL','55013','805929')" stroke="#FFFFFF" stroke-width="2" d="
		M331.441,378.948l-3.557,0.147l-2.432,2.535l-0.041,4.79l-2.061,2.14l-4.844,0.495l-0.068,4.043l-0.092,2.725l-9.775,0.796
		l-0.111-8.288l-9.367-0.993l3.383-16.662l-4.368-2.594l6.433-2.952l5.076-0.188l6.743,4.627l3.225,3.768L331.441,378.948z"/>
	<path id="_x31_3118" onmouseover="displayName('MACUL','10594','1026802')" stroke="#FFFFFF" stroke-width="2" d="M385.185,442.935
		l-1.267-0.529l-14.194-0.909l-3.239-15.707l-3.123-9.873l25.358-1.775l4.671-2.876l-2.433,15.64l-4.25,8.809L385.185,442.935z"/>
	<path id="_x31_3111" onmouseover="displayName('LA GRANJA','23314','723919')" stroke="#FFFFFF" stroke-width="2" d="
		M371.329,478.198l-11.921,3.388l-0.277-1.331l-2.259-11.944l-1.8-18.376l0.074-0.007l6.017-0.862l4.688-2.692l5.598-1.119
		l1.096,10.055l-0.218,15.912l-2.78-0.015L371.329,478.198z"/>
	<path id="_x31_3104" onmouseover="displayName('CONCHALÍ','21159','769963')" stroke="#FFFFFF" stroke-width="2" d="
		M318.849,332.337l4.652,0.481l16.75,7.103l-0.536,1.798l0.527,11.122l-0.545,5.962l-5.923-1.104l-9.434,3.283l-4.798-9.079
		l-3.013-7.572l-4.583-11.65L318.849,332.337z"/>
	<path id="_x31_3103" onmouseover="displayName('CERRO NAVIA','no data','665305')" stroke="#FFFFFF" stroke-width="2" d="
		M299.093,387.338l-12.576,0.07l-0.024-5.087l-4.208,0.069l-6.136-1.851l-4.064,0.349l-8.367-2.636l-4.336-7.818l7.41,0.419
		l7.554-1.757l15.838-0.493l5.261,0.932l2.662-1.453l4.368,2.594L299.093,387.338z"/>
	<path id="_x31_3123" onmouseover="displayName('PROVIDENCIA','2681','1676893')" stroke="#FFFFFF" stroke-width="2" d="
		M387.81,382.129l1.5,1.565l-6.686,10.926l-3.508-2.404l-13.314,2.278l-8.295,2.128l-2.603-10.895l-0.619-3.908l2.47-6.743
		l4.984-3.303l3.255-4.763l3.539-2l5.487-0.014l-1.439,5.296l3.996,1.442L387.81,382.129z"/>
	<path id="_x31_3106" onmouseover="displayName('ESTACIÓN CENTRAL','8649','825540')" stroke="#FFFFFF" stroke-width="2" d="
		M326.07,417.747l-3.743-0.151l-7.86,2.574l-8.941,1.542l-6.186-6.022l-7.736-2.746l1.488-1.061l-0.083-10.249l13.003,2.436
		l0.022-0.004l3.642-1.018l-1.105-6.429l9.775-0.796l0.092-2.725l7.93-0.618l1.23,5.825l-0.597,13.655l3.998,1.146l0.086,3.382
		L326.07,417.747z"/>
	<path id="_x31_3128" onmouseover="displayName('RENCA','36788','728242')" stroke="#FFFFFF" stroke-width="2" d="M324.34,360.982
		l1.001,2.216l1.367,9.524l4.794,5.961l-0.062,0.266l-11.856-5.612l-3.225-3.768l-6.743-4.627l-5.076,0.188l-6.433,2.952
		l-2.662,1.453l-5.261-0.932l-15.838,0.493l-7.554,1.757l-7.41-0.419l0.113-6.865l16.071-16.908l4.027,1.756l1.544,3.068
		l4.856-0.501l2.778,2.986l7.36-1.628l4.822,0.976l4.33-1.624l4.277-5.598l6.967-1.767l3.013,7.572L324.34,360.982z"/>
	<path id="_x31_3127" onmouseover="displayName('RECOLETA','13154','799823')" stroke="#FFFFFF" stroke-width="2" d="
		M370.99,362.132l-2.457,2.879l-3.539,2l-3.255,4.763l-4.984,3.303l-2.47,6.743l0.619,3.908l-10.597-2.752l0.833-10.952
		l-1.646-0.226l-0.43-8.53l-2.676-0.779l-0.69-3.686l0.545-5.962l-0.527-11.122l0.536-1.798l10.55,4.986l11.882,10.589l3.233,1.362
		L370.99,362.132z"/>
	<path id="_x31_3105" onmouseover="displayName('EL BOSQUE','32501','737173')" stroke="#FFFFFF" stroke-width="2" d="
		M344.541,473.285l-0.8,4.817l-5.077,23.472l-8.73-1.978l-12.094-5.495l-3.809-1.059l2.748-7.528l0.696-6.25l1.56,0.108
		l4.885-13.207l12.025,5.391L344.541,473.285z"/>
	<path id="_x31_3112" onmouseover="displayName('LA PINTANA','88668','618355')" stroke="#FFFFFF" stroke-width="2" d="
		M359.131,480.254l0.277,1.331l11.921-3.388l0.755,11.24l0.678,10.407l3.687,13.879l-14.038,2.447l0.519,10.784l-1.336,6.852
		l-10.4-0.029l-0.933-4.463l1.718-8.889l-17.816-1.6l4.501-17.252l5.077-23.472L359.131,480.254z"/>
	<path id="_x31_3120" onmouseover="displayName('ÑUÑOA','3929','1548355')" stroke="#FFFFFF" stroke-width="2" d="
		M395.979,403.072l-2.587,8.193l-4.671,2.876l-25.358,1.775l-1.397-4.087l-0.623-0.613l-3.836-14.594l8.295-2.128l13.314-2.278
		l3.508,2.404l6.686-10.926l5.735,3.381l1.847,11.205L395.979,403.072z"/>
	<path id="_x31_3125" onmouseover="displayName('QUILICURA','15029','865565')" stroke="#FFFFFF" stroke-width="2" d="
		M323.903,305.109l0.912,5.591l-4.428,3.118l-0.97,4.499l-2.766,4.086l2.197,9.934l-6.903,0.343l4.583,11.65l-6.967,1.767
		l-4.277,5.598l-4.33,1.624l-4.822-0.976l-7.36,1.628l-2.778-2.986l-4.856,0.501l-1.544-3.068l-4.027-1.756l-4.691-4.104
		l-7.505-4.744l-18.728-15.777l3.186-4.543l0.464-5.759l6.132,1.871l51.566-15.032l0.267-3.063l7.613,2.352l4.266,2.503l0.38,2.763
		L323.903,305.109z"/>
	<path id="_x31_3124" onmouseover="displayName('PUDAHUEL','32899','818823')" stroke="#FFFFFF" stroke-width="2" d="
		M275.567,346.661l-16.071,16.908l-0.113,6.865l4.336,7.818l8.367,2.636l4.064-0.349l6.136,1.851l4.208-0.069l0.024,5.087
		l0.316,7.157l1.198,6.009l4.978,1.06l0.083,10.249l-1.488,1.061l-19.345-4.383l-0.987-3.468l-6.898-0.514l-0.782,3.485
		l-12.073-1.459l-0.342,1.788l-6.584-1.418l-5.497,3.865l-7.913,0.845l-1.798-0.977l-7.862,1.816l-4.315,8.829l-6.899,0.949
		l-12.415-2.396l-11.098,2.288l-6.204,3.127l-3.683,0.691l-1.494,2.35l-4.119,0.912l-7.645-9.861l-3.86,0.156l-2.921-2.819
		l-4.271-1.76l-0.992-5.674l0.074-6.328L148,398.326l0.414-6.229l3.589-5.667l-0.074-3.816l1.52-4.347l-0.54-3.637l-3.008-3.597
		l0.873-3.782l-1.42-5.607l2.018-6.49l0.199-3.933l3.758-4.303l4.994-1.292l10.956-5.701l1.562-1.714l5.072-1.496l4.732,3.619
		l5.341,2.528l2.05-1.168l5.962,0.408l3.342-1.839l2.426,1.726l6.644,0.307l6.037,3.609l7.543,2.97l4.345-3.402l3.367-7.104
		l1.641-0.515l2.458-6.293l6.214-2.955l4.629-6.571l18.728,15.777l7.505,4.744L275.567,346.661z"/>
	<path id="_x31_3122" onmouseover="displayName('PEÑALOLÉN','16107','974703')" stroke="#FFFFFF" stroke-width="2" d="
		M451.772,404.058l9.593,10.692l6.302,0.313l9.652,6.668l5.43,0.961l1.037,4.788l-3.875,0.155l-5.226,2.809l-9.754-3.365
		l-2.85,2.489l-3.027,0.365l-6.192,5.09l-3.993-0.375l-4.727-2.37l-10.823,3.377l-5.177,4.403l-11.896,4.11l-7.505-0.22l0,0
		l-21.941-1.368l-1.617,0.354l1.524-7.222l4.25-8.809l2.433-15.64l2.587-8.193l6.543,2.621l14.046,0.146l6.096,1.887l1.102-4.925
		L451.772,404.058z"/>
	<path id="_x31_3114" onmouseover="displayName('LAS CONDES','4680','2006908')" stroke="#FFFFFF" stroke-width="2" d="
		M485.987,418.914l-3.238,3.777l-5.43-0.961l-9.652-6.668l-6.302-0.313l-9.593-10.692l-2.115-4.517l-3.767-3.363l-0.782-4.3
		l-4.401-5.058l-3.642-2.193l-4.817-0.624l-4.591-2.533l-9.509,1.523l-0.807-3.462l-10.043,1.487l-19.489,1.11l-11.233-10.394
		l-3.996-1.442l1.439-5.296l12.373-4.233l9.693-4.946l17.609-7.816l5.879-3.568l4.797-4.997l6.107-3.501l7.565-2.161l8.438-4.35
		l9.721-0.344l0.234,4.039l-3.656,5.594l2.851,5.294l2.17,7.844l3.618-0.254l10.432,2.671l1.742,4.106l-0.973,6.523l1.092,5.637
		l1.753,2.097l5.592,3.342l3.482,0.637l3.345,9.381l-1.096,5.025l2.477,3.157l0.669,7.26l-1.364,3.93l-3.314,3.882l1.615,4.051
		L485.987,418.914z"/>
	<path id="_x31_3110" onmouseover="displayName('LA FLORIDA','11836','1006713')" stroke="#FFFFFF" stroke-width="2" d="
		M483.786,427.48l0.202,4.255l-3.779,5.021l-4.775,1.524l-7.086,7.075l-1.9,1.088l-2.913,8.103l-7.106,3.329l0.176,4.315
		l-3.761,1.994l-1.052,3.35l-6.975,0.176l-3.396,1.771l-8.36-1.852l-4.731-0.225l-5.757,1.176l-3.547,4.126l-5.021,1.383
		l-3.448-2.492l-10.826-0.11l7.07,10.024l-17.352,3.988l0.433,2.6l-5.521,1.104l-4.87-2.268l-7.405,2.502l-0.755-11.24l-1.783-6.992
		l2.78,0.015l0.218-15.912l-1.096-10.055l-1.725-3.757l14.194,0.909l1.267,0.529l1.617-0.354l21.941,1.368l0,0l7.505,0.22
		l11.896-4.11l5.177-4.403l10.823-3.377l4.727,2.37l3.993,0.375l6.192-5.09l3.027-0.365l2.85-2.489l9.754,3.365l5.226-2.809
		L483.786,427.48z"/>
	<path id="_x31_3101" onmouseover="displayName('SANTIAGO','5056','1125405')" stroke="#FFFFFF" stroke-width="2" d="
		M344.306,382.976l10.597,2.752l2.603,10.895l3.836,14.594l0.623,0.613l-1.04,1.538l-9.798,3.921l-8.346,0.158l-10.839-0.15
		l-5.872,0.451l5.016-1.259L331,413.107l-3.998-1.146l0.597-13.655l-1.23-5.825l-7.93,0.618l0.068-4.043l4.844-0.495l2.061-2.14
		l0.041-4.79l2.432-2.535l3.557-0.147l0.062-0.266L344.306,382.976z"/>
	<path id="_x31_3119" onmouseover="displayName('MAIPÚ','14098','942229')" stroke="#FFFFFF" stroke-width="2" d="M291.604,412.944
		l7.736,2.746l-1.508,7.006l-4.455,0.195l0.152,9.148L291.566,435l-3.386,9.31l8.33-0.3l1.72-1.058l3.925,4.01l-5.088,7.854
		l-23.528,33.489l-3.443,3.74l-9.447-2.732l-9.42-9.183l-11.717-9.141l6.756-6.104l0.432-4.094l-2.009-1.6l-3.672,1.927
		l-3.295,5.539l-15.093-3.16l-6.247,3.252l-4.859-5.166l-11.006,1.067l-4.442-2.908l-3.777-0.911l-2.608-5.051l-3.57-1.439
		l-4.078-5.79l-4.45-1.42l-6.255,2.766l-4.813-2.947l-1.494-2.697l4.046-11.572l2.224-1.403l4.119-0.912l1.494-2.35l3.683-0.691
		l6.204-3.127l11.098-2.288l12.415,2.396l6.899-0.949l4.315-8.829l7.862-1.816l1.798,0.977l7.913-0.845l5.497-3.865l6.584,1.418
		l0.342-1.788l12.073,1.459l0.782-3.485l6.898,0.514l0.987,3.468L291.604,412.944z"/>
</g>

<g>
<text id="infoBox" y="150">
	<tspan class = "box" id="municipality-name" x="150" dy="1.2em">COMUNA</tspan>
	<tspan class = "box" id="pharmacy-pop-index" x="150" dy="1.2em">People per pharmacy:</tspan>
	<tspan class = "box" id="income" x="150" dy="1.2em">Average income in CLP:</tspan>
</text>
</g>


<script  type="text/javascript">
	<![CDATA[
      function displayName(name, popIndex, income) {
        document.getElementById('municipality-name').childNodes[0].data = name;
		document.getElementById('pharmacy-pop-index').childNodes[0].data = 'People per pharmacy: '+ popIndex;
		document.getElementById('income').childNodes[0].data = 'Average income in CLP: ' + income;
    }
  
		]]>
</script>
</svg>
